<svg width="158" height="32" viewBox="0 0 158 32" fill="none" xmlns="http://www.w3.org/2000/svg">
<path d="M154.112 21.7801C153.278 21.7801 152.559 21.596 151.954 21.2279C151.353 20.856 150.889 20.3376 150.563 19.6728C150.24 19.0041 150.078 18.2266 150.078 17.3401C150.078 16.4536 150.24 15.6723 150.563 14.9962C150.889 14.3163 151.344 13.7866 151.926 13.4072C152.512 13.0241 153.196 12.8325 153.977 12.8325C154.428 12.8325 154.873 12.9076 155.312 13.0579C155.752 13.2082 156.152 13.4523 156.513 13.7904C156.873 14.1247 157.161 14.5679 157.375 15.1201C157.589 15.6723 157.696 16.3522 157.696 17.1598V17.7232H151.025V16.5738H156.344C156.344 16.0855 156.246 15.6498 156.051 15.2666C155.859 14.8835 155.585 14.5811 155.228 14.3595C154.875 14.1378 154.458 14.027 153.977 14.027C153.447 14.027 152.989 14.1585 152.602 14.4214C152.219 14.6806 151.924 15.0187 151.718 15.4356C151.511 15.8526 151.408 16.2996 151.408 16.7766V17.5429C151.408 18.1965 151.52 18.7506 151.746 19.2051C151.975 19.6559 152.292 19.9996 152.698 20.2362C153.104 20.4691 153.575 20.5855 154.112 20.5855C154.462 20.5855 154.777 20.5367 155.059 20.4391C155.344 20.3376 155.59 20.1874 155.797 19.9883C156.004 19.7855 156.163 19.5338 156.276 19.2333L157.561 19.5939C157.425 20.0296 157.198 20.4128 156.879 20.7433C156.56 21.0701 156.165 21.3255 155.696 21.5096C155.226 21.6899 154.698 21.7801 154.112 21.7801Z" fill="black" style="fill:black;fill-opacity:1;"/>
<path d="M148.324 14.8835L147.13 15.2215C147.055 15.0224 146.944 14.829 146.797 14.6412C146.655 14.4496 146.459 14.2918 146.211 14.1679C145.963 14.0439 145.646 13.982 145.259 13.982C144.729 13.982 144.288 14.104 143.935 14.3482C143.586 14.5886 143.411 14.8947 143.411 15.2666C143.411 15.5972 143.531 15.8582 143.772 16.0498C144.012 16.2414 144.388 16.401 144.898 16.5287L146.183 16.8443C146.957 17.0321 147.534 17.3194 147.913 17.7063C148.292 18.0895 148.482 18.5834 148.482 19.1882C148.482 19.684 148.339 20.1273 148.054 20.5179C147.772 20.9086 147.378 21.2166 146.871 21.442C146.363 21.6674 145.774 21.7801 145.101 21.7801C144.219 21.7801 143.488 21.5885 142.91 21.2053C142.331 20.8222 141.965 20.2625 141.811 19.5263L143.073 19.2107C143.193 19.6765 143.42 20.0259 143.755 20.2588C144.093 20.4916 144.534 20.6081 145.079 20.6081C145.699 20.6081 146.191 20.4766 146.555 20.2137C146.923 19.947 147.107 19.6277 147.107 19.2558C147.107 18.9553 147.002 18.7036 146.792 18.5008C146.581 18.2942 146.258 18.1402 145.823 18.0388L144.38 17.7007C143.588 17.5129 143.005 17.2218 142.633 16.8274C142.265 16.4292 142.081 15.9315 142.081 15.3342C142.081 14.8459 142.218 14.4139 142.493 14.0383C142.771 13.6627 143.148 13.3678 143.625 13.1537C144.106 12.9396 144.651 12.8325 145.259 12.8325C146.116 12.8325 146.788 13.0203 147.276 13.396C147.768 13.7716 148.118 14.2674 148.324 14.8835Z" fill="black" style="fill:black;fill-opacity:1;"/>
<path d="M135.8 21.8026C135.252 21.8026 134.754 21.6993 134.307 21.4927C133.86 21.2823 133.505 20.98 133.242 20.5855C132.979 20.1874 132.848 19.7066 132.848 19.1431C132.848 18.6473 132.945 18.2454 133.141 17.9373C133.336 17.6256 133.597 17.3814 133.924 17.2049C134.251 17.0283 134.611 16.8968 135.006 16.8105C135.404 16.7203 135.804 16.6489 136.206 16.5963C136.732 16.5287 137.158 16.478 137.485 16.4442C137.816 16.4067 138.056 16.3447 138.206 16.2583C138.36 16.1719 138.437 16.0216 138.437 15.8075V15.7624C138.437 15.2065 138.285 14.7745 137.981 14.4665C137.68 14.1585 137.224 14.0045 136.612 14.0045C135.977 14.0045 135.479 14.1435 135.118 14.4214C134.758 14.6994 134.504 14.9962 134.358 15.3117L133.096 14.8609C133.321 14.335 133.622 13.9256 133.997 13.6326C134.377 13.3359 134.79 13.1293 135.237 13.0128C135.688 12.8926 136.131 12.8325 136.567 12.8325C136.844 12.8325 137.164 12.8663 137.524 12.9339C137.889 12.9978 138.24 13.1311 138.578 13.334C138.92 13.5368 139.203 13.843 139.429 14.2524C139.654 14.6618 139.767 15.2103 139.767 15.8977V21.5998H138.437V20.4278H138.37C138.279 20.6156 138.129 20.8166 137.919 21.0307C137.708 21.2448 137.429 21.427 137.079 21.5772C136.73 21.7275 136.304 21.8026 135.8 21.8026ZM136.003 20.6081C136.529 20.6081 136.972 20.5048 137.333 20.2982C137.697 20.0916 137.971 19.8249 138.155 19.4981C138.343 19.1713 138.437 18.8276 138.437 18.467V17.2499C138.381 17.3176 138.257 17.3795 138.065 17.4359C137.877 17.4885 137.66 17.5354 137.412 17.5767C137.168 17.6143 136.929 17.6481 136.696 17.6782C136.467 17.7045 136.281 17.727 136.138 17.7458C135.793 17.7909 135.47 17.8641 135.169 17.9655C134.872 18.0632 134.632 18.2116 134.448 18.4106C134.268 18.606 134.178 18.8727 134.178 19.2107C134.178 19.6728 134.348 20.0221 134.69 20.2588C135.036 20.4916 135.473 20.6081 136.003 20.6081Z" fill="black" style="fill:black;fill-opacity:1;"/>
<path d="M123.114 21.5999V10.0605H127.149C127.952 10.0605 128.615 10.1995 129.138 10.4775C129.66 10.7517 130.048 11.1217 130.304 11.5875C130.559 12.0495 130.687 12.5623 130.687 13.1257C130.687 13.6215 130.599 14.031 130.422 14.354C130.249 14.6771 130.02 14.9325 129.735 15.1203C129.453 15.3081 129.147 15.4471 128.816 15.5373V15.6499C129.169 15.6725 129.524 15.7964 129.881 16.0218C130.238 16.2472 130.537 16.5702 130.777 16.9909C131.018 17.4117 131.138 17.9263 131.138 18.5348C131.138 19.1133 131.006 19.6335 130.743 20.0955C130.48 20.5576 130.065 20.9238 129.498 21.1943C128.931 21.4647 128.193 21.5999 127.284 21.5999H123.114ZM124.512 20.3604H127.284C128.197 20.3604 128.845 20.1838 129.228 19.8307C129.615 19.4739 129.808 19.0419 129.808 18.5348C129.808 18.1441 129.708 17.7835 129.509 17.453C129.31 17.1187 129.027 16.852 128.659 16.6529C128.29 16.45 127.855 16.3486 127.351 16.3486H124.512V20.3604ZM124.512 15.1316H127.103C127.524 15.1316 127.904 15.0489 128.242 14.8837C128.583 14.7184 128.854 14.4855 129.053 14.185C129.256 13.8845 129.357 13.5314 129.357 13.1257C129.357 12.6186 129.181 12.1885 128.828 11.8354C128.475 11.4786 127.915 11.3001 127.149 11.3001H124.512V15.1316Z" fill="black" style="fill:black;fill-opacity:1;"/>
<path d="M116.347 21.7802C115.626 21.7802 114.989 21.5981 114.437 21.2337C113.885 20.8656 113.453 20.3472 113.141 19.6786C112.829 19.0062 112.674 18.2117 112.674 17.2952C112.674 16.3862 112.829 15.5974 113.141 14.9287C113.453 14.2601 113.887 13.7436 114.443 13.3792C114.999 13.0149 115.641 12.8327 116.37 12.8327C116.933 12.8327 117.378 12.9266 117.705 13.1144C118.036 13.2985 118.287 13.5088 118.46 13.7455C118.637 13.9784 118.774 14.17 118.872 14.3202H118.984V10.0605H120.314V21.5999H119.029V20.2702H118.872C118.774 20.428 118.635 20.6271 118.455 20.8675C118.274 21.1041 118.017 21.3163 117.683 21.5042C117.348 21.6882 116.903 21.7802 116.347 21.7802ZM116.528 20.5857C117.061 20.5857 117.512 20.4468 117.88 20.1688C118.248 19.8871 118.528 19.4983 118.719 19.0025C118.911 18.5029 119.007 17.9263 119.007 17.2727C119.007 16.6266 118.913 16.0613 118.725 15.5767C118.537 15.0884 118.259 14.709 117.891 14.4385C117.523 14.1643 117.068 14.0272 116.528 14.0272C115.964 14.0272 115.495 14.1718 115.119 14.4611C114.747 14.7465 114.467 15.1353 114.279 15.6274C114.095 16.1157 114.003 16.6641 114.003 17.2727C114.003 17.8887 114.097 18.4484 114.285 18.9517C114.477 19.4513 114.758 19.8495 115.13 20.1462C115.506 20.4392 115.972 20.5857 116.528 20.5857Z" fill="black" style="fill:black;fill-opacity:1;"/>
<path d="M109.314 18.0614V12.9453H110.644V21.5999H109.314V20.1349H109.224C109.021 20.5744 108.706 20.9481 108.277 21.2562C107.849 21.5604 107.308 21.7125 106.655 21.7125C106.114 21.7125 105.633 21.5942 105.212 21.3576C104.791 21.1172 104.461 20.7566 104.22 20.2758C103.98 19.7912 103.86 19.1808 103.86 18.4446V12.9453H105.19V18.3544C105.19 18.9855 105.366 19.4888 105.719 19.8644C106.076 20.2401 106.531 20.4279 107.083 20.4279C107.413 20.4279 107.75 20.3434 108.091 20.1743C108.437 20.0053 108.726 19.7461 108.959 19.3968C109.196 19.0474 109.314 18.6023 109.314 18.0614Z" fill="black" style="fill:black;fill-opacity:1;"/>
<path d="M97.9085 21.7801C97.1272 21.7801 96.4416 21.5941 95.8519 21.2222C95.2659 20.8504 94.8076 20.3301 94.4771 19.6615C94.1503 18.9929 93.9869 18.2116 93.9869 17.3176C93.9869 16.416 94.1503 15.6291 94.4771 14.9567C94.8076 14.2843 95.2659 13.7622 95.8519 13.3903C96.4416 13.0185 97.1272 12.8325 97.9085 12.8325C98.6898 12.8325 99.3734 13.0185 99.9594 13.3903C100.549 13.7622 101.007 14.2843 101.334 14.9567C101.665 15.6291 101.83 16.416 101.83 17.3176C101.83 18.2116 101.665 18.9929 101.334 19.6615C101.007 20.3301 100.549 20.8504 99.9594 21.2222C99.3734 21.5941 98.6898 21.7801 97.9085 21.7801ZM97.9085 20.5855C98.502 20.5855 98.9903 20.4334 99.3734 20.1292C99.7566 19.8249 100.04 19.4248 100.224 18.929C100.408 18.4332 100.5 17.896 100.5 17.3176C100.5 16.7391 100.408 16.2001 100.224 15.7005C100.04 15.2009 99.7566 14.7971 99.3734 14.4891C98.9903 14.181 98.502 14.027 97.9085 14.027C97.315 14.027 96.8267 14.181 96.4435 14.4891C96.0604 14.7971 95.7768 15.2009 95.5927 15.7005C95.4086 16.2001 95.3166 16.7391 95.3166 17.3176C95.3166 17.896 95.4086 18.4332 95.5927 18.929C95.7768 19.4248 96.0604 19.8249 96.4435 20.1292C96.8267 20.4334 97.315 20.5855 97.9085 20.5855Z" fill="black" style="fill:black;fill-opacity:1;"/>
<path d="M91.9571 10.0605V21.5999H90.6273V10.0605H91.9571Z" fill="black" style="fill:black;fill-opacity:1;"/>
<path d="M88.5496 13.6667H87.1522C87.0696 13.2647 86.925 12.9116 86.7184 12.6074C86.5156 12.3031 86.2676 12.0477 85.9746 11.8411C85.6854 11.6307 85.3642 11.473 85.0111 11.3678C84.6581 11.2626 84.2899 11.21 83.9068 11.21C83.2081 11.21 82.5752 11.3866 82.008 11.7397C81.4445 12.0928 80.9957 12.613 80.6613 13.3004C80.3308 13.9878 80.1655 14.8311 80.1655 15.8303C80.1655 16.8295 80.3308 17.6728 80.6613 18.3602C80.9957 19.0476 81.4445 19.5678 82.008 19.9209C82.5752 20.274 83.2081 20.4506 83.9068 20.4506C84.2899 20.4506 84.6581 20.398 85.0111 20.2928C85.3642 20.1876 85.6854 20.0317 85.9746 19.8251C86.2676 19.6148 86.5156 19.3575 86.7184 19.0532C86.925 18.7452 87.0696 18.3921 87.1522 17.9939H88.5496C88.4444 18.5837 88.2528 19.1114 87.9749 19.5772C87.6969 20.043 87.3513 20.4393 86.9381 20.7661C86.5249 21.0891 86.061 21.3352 85.5464 21.5042C85.0356 21.6732 84.489 21.7578 83.9068 21.7578C82.9226 21.7578 82.0474 21.5174 81.2811 21.0365C80.5148 20.5557 79.912 19.8721 79.4725 18.9856C79.033 18.0991 78.8132 17.0473 78.8132 15.8303C78.8132 14.6132 79.033 13.5615 79.4725 12.675C79.912 11.7885 80.5148 11.1049 81.2811 10.624C82.0474 10.1432 82.9226 9.90283 83.9068 9.90283C84.489 9.90283 85.0356 9.98735 85.5464 10.1564C86.061 10.3254 86.5249 10.5733 86.9381 10.9001C87.3513 11.2232 87.6969 11.6176 87.9749 12.0834C88.2528 12.5454 88.4444 13.0732 88.5496 13.6667Z" fill="black" style="fill:black;fill-opacity:1;"/>
<path d="M60.6915 21.5947H61.8077V22.8525H59.4337V16.1133H56.4269V23H55.1691V16.1133H52.4435V14.8672H55.1691V10.8145H52.7901V9.55566H60.6915V21.5947ZM51.4659 20.6133C52.4957 19.833 53.5591 19.0278 53.586 19.0068C53.6307 18.9724 53.699 18.9983 53.6993 19.0596V20.3545L50.2316 22.9814L49.5411 22.0703C49.5488 22.0645 49.8195 21.8603 50.2159 21.5596V14.4385H48.5284V13.1816H51.4659V20.6133ZM38.4122 22.9316H36.378L36.0636 21.9033C36.0341 21.8252 36.0771 21.7892 36.1329 21.7891H37.2716V18.2344H35.6691C35.6625 19.3911 35.6133 20.985 35.2306 22.9053H34.0841C34.0169 22.9053 33.9775 22.8699 34.0138 22.7412C34.3601 21.3428 34.5284 19.7637 34.5284 17.6855V9.58301H38.4122V22.9316ZM43.3858 9C43.4418 9.00001 43.4887 9.01778 43.4767 9.10352C43.3749 9.84284 43.2637 10.502 43.1349 11.0967H44.5099L44.961 9.56152H45.9347C45.9841 9.56162 46.0244 9.59155 46.0021 9.66797C45.9881 9.71411 45.7685 10.4624 45.5821 11.0967H46.7032V12.126H42.879C42.769 12.5075 42.6462 12.86 42.5118 13.1885H46.9835V14.2178L45.4454 14.2139C46.1755 15.2482 46.9539 15.7275 47.2648 15.917V17.0938C47.2648 17.1525 47.2181 17.2158 47.0323 17.1104C46.5422 16.8331 46.0039 16.4655 45.4728 15.9717L45.4269 17.9727H46.8458V22.9268H43.2189L42.9064 21.8994C42.8775 21.8212 42.9198 21.7843 42.9747 21.7842H45.589V19.002H39.7901C39.7492 19.002 39.7201 18.9726 39.7198 18.9336L39.8282 16.9824H40.9034C40.9445 16.9824 40.9737 17.0127 40.9737 17.0527L40.922 17.9746H44.2843L44.3204 16.4336H40.0626C39.6967 16.7043 39.3351 16.921 38.9972 17.1133C38.8114 17.2188 38.7648 17.1555 38.7648 17.0967V15.9199C39.0756 15.7304 39.855 15.253 40.5851 14.2168H38.7745V13.1875H41.1847C41.3479 12.8321 41.5001 12.4497 41.6036 12.125H39.0558V11.0957H40.1476C39.9616 10.4624 39.7423 9.71514 39.7286 9.66699C39.7062 9.59059 39.7448 9.56164 39.7941 9.56152H40.7677L41.2189 11.0957H41.8937C42.0458 10.4628 42.1645 9.78602 42.2774 9H43.3858ZM75.7853 15.8701H68.0636V15.8711L65.9396 21.4609H73.213C73.1986 21.4231 72.0734 18.4586 72.0558 18.4141C72.0382 18.3684 72.0682 18.3187 72.1202 18.3184H73.4864C73.4994 18.3524 75.111 22.5885 75.1222 22.6191C75.1407 22.6677 75.1109 22.7187 75.0587 22.7188H64.088C64.0406 22.7186 64.0034 22.6779 64.0235 22.6221C64.0366 22.5867 65.8658 17.784 66.5948 15.8701H63.0665V14.6123H75.7853V15.8701ZM45.0089 20.9453H38.7755V19.8018H45.0089V20.9453ZM35.671 17.2051H37.2716V14.4697H35.671V17.2051ZM42.0148 14.2178C41.7534 14.6799 41.472 15.0711 41.1808 15.4062H44.923C44.6186 15.0609 44.3234 14.6676 44.0499 14.2178H42.0148ZM56.4259 14.8662H59.4327V10.8135H56.4259V14.8662ZM35.671 13.4404H37.2716V10.7266H35.671V13.4404ZM50.0821 9.30176C50.0821 9.30176 51.7903 11.9119 51.8155 11.9502C51.8422 11.9912 51.8172 12.0564 51.7569 12.0566H50.3819C50.3819 12.0566 48.6796 9.45641 48.6466 9.40625C48.6177 9.36237 48.6558 9.30176 48.7081 9.30176H50.0821ZM74.3888 11.1182H64.4649V9.86133H74.3888V11.1182Z" fill="#040000" style="fill:#040000;fill:color(display-p3 0.0157 0.0000 0.0000);fill-opacity:1;"/>
<path fill-rule="evenodd" clip-rule="evenodd" d="M5 13.284C4.99985 13.1152 5.06216 12.9464 5.18691 12.8152L10.2837 7.71869C10.3475 7.65494 10.4339 7.61914 10.5241 7.61914H17.0362C17.3388 7.61914 17.4905 7.9848 17.2768 8.19905L12.2053 13.284H5Z" fill="#73E6E6" style="fill:#73E6E6;fill:color(display-p3 0.4509 0.9018 0.9018);fill-opacity:1;"/>
<path fill-rule="evenodd" clip-rule="evenodd" d="M5 13.2852C4.99985 13.4539 5.06216 13.6228 5.18692 13.754L10.2837 18.8504C10.3475 18.9141 10.4339 18.95 10.5241 18.95H17.0362C17.3388 18.95 17.4905 18.5843 17.2768 18.37L12.2053 13.2852H5Z" fill="#2BCCCC" style="fill:#2BCCCC;fill:color(display-p3 0.1686 0.8000 0.8000);fill-opacity:1;"/>
<mask id="mask0_613_7628" style="mask-type:alpha" maskUnits="userSpaceOnUse" x="12" y="13" width="1" height="1">
<path fill-rule="evenodd" clip-rule="evenodd" d="M12.4397 13.0518L12.2066 13.2849L12.4397 13.5179C12.3112 13.3891 12.3112 13.1806 12.4397 13.0518Z" fill="#D9D9D9" style="fill:#D9D9D9;fill:color(display-p3 0.8510 0.8510 0.8510);fill-opacity:1;"/>
</mask>
<g mask="url(#mask0_613_7628)">
<path d="M12.4395 13.0488H12.2028V13.2856H12.4395V13.0488Z" fill="#67E9E9" style="fill:#67E9E9;fill:color(display-p3 0.4039 0.9137 0.9137);fill-opacity:1;"/>
<path d="M12.4395 13.2852H12.2028V13.5219H12.4395V13.2852Z" fill="#2BCCCC" style="fill:#2BCCCC;fill:color(display-p3 0.1686 0.8000 0.8000);fill-opacity:1;"/>
</g>
<path fill-rule="evenodd" clip-rule="evenodd" d="M27 18.7166C27.0001 18.5478 26.9378 18.379 26.813 18.2478L21.7162 13.1513C21.6525 13.0876 21.5661 13.0518 21.4759 13.0518H14.9638C14.6612 13.0518 14.5095 13.4174 14.7231 13.6317L19.7946 18.7166H27Z" fill="#4076FF" style="fill:#4076FF;fill:color(display-p3 0.2520 0.4614 1.0000);fill-opacity:1;"/>
<path fill-rule="evenodd" clip-rule="evenodd" d="M27 18.7163C27.0002 18.883 26.9395 19.0498 26.8178 19.1803L21.7162 24.2816C21.6525 24.3453 21.5661 24.3811 21.4759 24.3811H14.9638C14.6612 24.3811 14.5095 24.0155 14.7231 23.8012L19.7946 18.7163H27Z" fill="#0052D9" style="fill:#0052D9;fill:color(display-p3 0.0000 0.3216 0.8510);fill-opacity:1;"/>
<mask id="mask1_613_7628" style="mask-type:alpha" maskUnits="userSpaceOnUse" x="19" y="18" width="1" height="1">
<path fill-rule="evenodd" clip-rule="evenodd" d="M19.5618 18.4834L19.7949 18.7164L19.5618 18.9495C19.6903 18.8207 19.6903 18.6122 19.5618 18.4834Z" fill="#D9D9D9" style="fill:#D9D9D9;fill:color(display-p3 0.8510 0.8510 0.8510);fill-opacity:1;"/>
</mask>
<g mask="url(#mask1_613_7628)">
<path d="M19.562 18.4805H19.7988V18.7172H19.562V18.4805Z" fill="#4896FF" style="fill:#4896FF;fill:color(display-p3 0.2824 0.5882 1.0000);fill-opacity:1;"/>
<path d="M19.562 18.7168H19.7988V18.9535H19.562V18.7168Z" fill="#0052D9" style="fill:#0052D9;fill:color(display-p3 0.0000 0.3216 0.8510);fill-opacity:1;"/>
</g>
</svg>
